<svg width="186" height="186" viewBox="0 0 186 186" fill="none" xmlns="http://www.w3.org/2000/svg">
    <g clip-path="url(#clip0_16_71)">
        <path
            d="M118.716 106.676C120.003 103.772 117.96 100.683 114.852 100.028C111.744 99.3747 76.4325 103.362 74.7209 106.038C71.9406 107.573 70.8922 111.126 72.9736 113.525C75.3478 116.262 78.2541 118.515 81.5367 120.137C86.5491 122.612 92.1981 123.495 97.7265 122.667C103.255 121.84 108.398 119.34 112.465 115.506C115.129 112.994 117.247 109.988 118.716 106.676Z"
            fill="white" />
        <path
            d="M110.489 69.7917L111.442 76.5745M69.7917 75.5113L70.7449 82.2941M67.6652 158.812L135.494 149.279C150.478 147.173 160.918 133.319 158.812 118.335L149.279 50.5064C147.173 35.5222 133.319 25.0823 118.335 27.1882L50.5064 36.7208C35.5222 38.8267 25.0822 52.681 27.1881 67.6652L36.7208 135.494C38.8266 150.478 52.681 160.918 67.6652 158.812Z"
            stroke="white" stroke-width="13.699" stroke-linecap="round" />
    </g>
    <defs>
        <clipPath id="clip0_16_71">
            <rect width="164.388" height="164.388" fill="white" transform="translate(0.166748 23.0452) rotate(-8)" />
        </clipPath>
    </defs>
</svg>