<!-- <svg width="550" height="550" viewBox="0 0 40 40" fill="none" xmlns="http://www.w3.org/2000/svg">
    <style>
        .cup-steam-line {
            animation: come-down 2s linear infinite;
        }

        @keyframes come-down {
            from {
                transform: translateY(25%);
            }

            to {
                transform: translateY(50%);
            }
        }
    </style>
    <path xmlns="http://www.w3.org/2000/svg" class="cup-bowl"
        d="M29.496 20.7499H2.4126V29.0832C2.4126 31.2934 3.29057 33.413 4.85338 34.9758C6.41618 36.5386 8.5358 37.4166 10.7459 37.4166H21.1626C23.3728 37.4166 25.4924 36.5386 27.0552 34.9758C28.618 33.413 29.496 31.2934 29.496 29.0832V20.7499ZM29.496 20.7499H33.6626C34.7677 20.7499 35.8275 21.1889 36.6089 21.9703C37.3903 22.7517 37.8293 23.8115 37.8293 24.9165V26.9999C37.8293 28.105 37.3903 29.1648 36.6089 29.9462C35.8275 30.7276 34.7677 31.1666 33.6626 31.1666H29.496"
        stroke="currentColor" stroke-width="3.31333" stroke-linecap="round" stroke-linejoin="round" />
    <g xmlns="http://www.w3.org/2000/svg" clip-path="url(#clip0_799_2990)">
        <path class="cup-steam-line cup-steam-line-1" xmlns="http://www.w3.org/2000/svg"
            d="M20.6548 -25L21.2198 -24.2773C22.2824 -22.918 22.3537 -21.0305 21.3966 -19.5949L20.5455 -18.3182C19.6167 -16.9251 19.6539 -15.1009 20.6387 -13.7467L21.1778 -13.0055C22.2402 -11.5447 22.1358 -9.53982 20.9275 -8.19724L20.6352 -7.87246C19.4382 -6.54249 19.4917 -4.50827 20.757 -3.24305V-3.24305C22.0165 -1.98349 22.076 0.0395473 20.8925 1.37089L20.7139 1.57183C19.6867 2.72748 19.4992 4.40505 20.246 5.75894L20.6548 6.5L21.9353 8.68407C22.6018 9.82079 22.6657 11.2128 22.1061 12.4058L20.6548 15.5"
            stroke="currentColor" stroke-width="3.31" stroke-linecap="round" />
        <path class="cup-steam-line cup-steam-line-1" xmlns="http://www.w3.org/2000/svg"
            d="M11.6548 -25L12.2198 -24.2773C13.2824 -22.918 13.3537 -21.0305 12.3966 -19.5949L11.5455 -18.3182C10.6167 -16.9251 10.6539 -15.1009 11.6387 -13.7467L12.1778 -13.0055C13.2402 -11.5447 13.1358 -9.53982 11.9275 -8.19724L11.6352 -7.87246C10.4382 -6.54249 10.4917 -4.50827 11.757 -3.24305V-3.24305C13.0165 -1.98349 13.076 0.0395473 11.8925 1.37089L11.7139 1.57183C10.6867 2.72748 10.4992 4.40505 11.246 5.75894L11.6548 6.5L12.9353 8.68407C13.6018 9.82079 13.6657 11.2128 13.1061 12.4058L11.6548 15.5"
            stroke="currentColor" stroke-width="3.31" stroke-linecap="round" />
    </g>
    <defs xmlns="http://www.w3.org/2000/svg">
        <clipPath id="clip0_799_2990" xmlns="http://www.w3.org/2000/svg">
            <rect width="17" height="13" fill="currentColor" transform="translate(8)" />
        </clipPath>
    </defs>
</svg> -->

<svg width="550" height="550" viewBox="0 0 550 550" fill="none" xmlns="http://www.w3.org/2000/svg">
    <style>
        .cup-steam-line {
            animation: come-down 2s linear infinite;
        }

        @keyframes come-down {
            from {
                transform: translateY(29%);
            }

            to {
                transform: translateY(62%);
            }
        }
    </style>
    <path xmlns="http://www.w3.org/2000/svg"
        d="M405.57 285.311H33.1733V399.894C33.1733 430.284 45.2454 459.429 66.7341 480.917C88.2226 502.406 117.367 514.478 147.756 514.478H290.986C321.376 514.478 350.521 502.406 372.009 480.917C393.498 459.429 405.57 430.284 405.57 399.894V285.311ZM405.57 285.311H462.861C478.056 285.311 492.628 291.347 503.372 302.092C514.117 312.836 520.153 327.408 520.153 342.602V371.249C520.153 386.444 514.117 401.016 503.372 411.76C492.628 422.505 478.056 428.541 462.861 428.541H405.57"
        stroke="currentColor" stroke-width="45.5583" stroke-linecap="round" stroke-linejoin="round" />
    <mask xmlns="http://www.w3.org/2000/svg" id="mask0_810_2998" style="mask-type:luminance" maskUnits="userSpaceOnUse"
        x="110" y="0" width="234" height="238">
        <path xmlns="http://www.w3.org/2000/svg" d="M343.75 0H110V235H343.75V0Z" fill="currentColor" />
    </mask>
    <g xmlns="http://www.w3.org/2000/svg" mask="url(#mask0_810_2998)">
        <path xmlns="http://www.w3.org/2000/svg" class="cup-steam-line cup-steam-line-1"
            d="M284.004 -451.923L291.773 -438.859C306.383 -414.287 307.364 -380.167 294.204 -354.216L282.501 -331.137C269.73 -305.954 270.241 -272.978 283.782 -248.498L291.195 -235.099C305.803 -208.693 304.368 -172.451 287.753 -148.181L283.734 -142.31C267.276 -118.268 268.011 -81.4957 285.409 -58.6244C302.727 -35.8554 303.545 0.714828 287.272 24.7814L284.816 28.4138C270.692 49.3044 268.114 79.6297 278.383 104.104L284.004 117.5L301.611 156.981C310.775 177.53 311.654 202.693 303.959 224.259L284.004 280.192"
            stroke="currentColor" stroke-width="45.5125" stroke-linecap="round" />
        <path xmlns="http://www.w3.org/2000/svg" class="cup-steam-line cup-steam-line-1"
            d="M160.254 -451.923L168.022 -438.859C182.633 -414.287 183.613 -380.167 170.453 -354.216L158.751 -331.137C145.98 -305.954 146.491 -272.978 160.032 -248.498L167.445 -235.099C182.053 -208.693 180.617 -172.451 164.003 -148.181L159.984 -142.31C143.525 -118.268 144.261 -81.4957 161.659 -58.6244C178.977 -35.8554 179.795 0.714828 163.522 24.7814L161.066 28.4138C146.942 49.3044 144.364 79.6297 154.633 104.104L160.254 117.5L177.86 156.981C187.025 177.53 187.903 202.693 180.209 224.259L160.254 280.192"
            stroke="currentColor" stroke-width="45.5125" stroke-linecap="round" />
    </g>
</svg>